<mxfile host="Electron" agent="Mozilla/5.0 (Windows NT 10.0; Win64; x64) AppleWebKit/537.36 (KHTML, like Gecko) draw.io/25.0.2 Chrome/128.0.6613.186 Electron/32.2.5 Safari/537.36" version="25.0.2">
  <diagram name="Seite-1" id="yjYKLFnnqBsw35xOZTIF">
    <mxGraphModel dx="2074" dy="1196" grid="1" gridSize="10" guides="1" tooltips="1" connect="1" arrows="1" fold="1" page="1" pageScale="1" pageWidth="1169" pageHeight="1654" math="0" shadow="0">
      <root>
        <mxCell id="0" />
        <mxCell id="1" parent="0" />
        <mxCell id="4i5kDcxhbJXgAdlXOKgt-1" value="" style="html=1;shadow=0;dashed=0;shape=mxgraph.bootstrap.rrect;rSize=5;strokeColor=#0071D5;html=1;whiteSpace=wrap;fillColor=#0085FC;fontColor=#ffffff;verticalAlign=bottom;align=left;spacing=20;spacingBottom=0;fontSize=14;" vertex="1" parent="1">
          <mxGeometry x="50" y="100" width="380" height="170" as="geometry" />
        </mxCell>
        <mxCell id="4i5kDcxhbJXgAdlXOKgt-2" value="Naemon Process" style="html=1;shadow=0;dashed=0;shape=mxgraph.bootstrap.topButton;rSize=5;perimeter=none;whiteSpace=wrap;fillColor=#0081F4;strokeColor=#0071D5;fontColor=#ffffff;resizeWidth=1;fontSize=18;align=left;spacing=20;" vertex="1" parent="4i5kDcxhbJXgAdlXOKgt-1">
          <mxGeometry width="380" height="50" relative="1" as="geometry" />
        </mxCell>
        <mxCell id="4i5kDcxhbJXgAdlXOKgt-4" value="External Command Logic" style="rounded=0;whiteSpace=wrap;html=1;fillColor=#1ba1e2;fontColor=#ffffff;strokeColor=#006EAF;fontSize=16;" vertex="1" parent="4i5kDcxhbJXgAdlXOKgt-1">
          <mxGeometry x="30.26" y="90.00142857142856" width="319.48" height="38.857142857142854" as="geometry" />
        </mxCell>
        <mxCell id="4i5kDcxhbJXgAdlXOKgt-99" style="edgeStyle=orthogonalEdgeStyle;rounded=0;orthogonalLoop=1;jettySize=auto;html=1;entryX=0.5;entryY=1;entryDx=0;entryDy=0;" edge="1" parent="1" source="4i5kDcxhbJXgAdlXOKgt-96" target="4i5kDcxhbJXgAdlXOKgt-4">
          <mxGeometry relative="1" as="geometry" />
        </mxCell>
        <mxCell id="4i5kDcxhbJXgAdlXOKgt-96" value="&lt;font style=&quot;font-size: 16px;&quot;&gt;External&lt;/font&gt;&lt;div&gt;&lt;font style=&quot;font-size: 16px;&quot;&gt;Command&lt;/font&gt;&lt;/div&gt;&lt;div&gt;&lt;font style=&quot;font-size: 16px;&quot;&gt;File&lt;/font&gt;&lt;/div&gt;" style="shape=note;whiteSpace=wrap;html=1;backgroundOutline=1;darkOpacity=0.05;fillColor=#e1d5e7;strokeColor=#9673a6;" vertex="1" parent="1">
          <mxGeometry x="185" y="320" width="110" height="140" as="geometry" />
        </mxCell>
        <mxCell id="4i5kDcxhbJXgAdlXOKgt-98" style="edgeStyle=orthogonalEdgeStyle;rounded=0;orthogonalLoop=1;jettySize=auto;html=1;" edge="1" parent="1" source="4i5kDcxhbJXgAdlXOKgt-97" target="4i5kDcxhbJXgAdlXOKgt-96">
          <mxGeometry relative="1" as="geometry" />
        </mxCell>
        <mxCell id="4i5kDcxhbJXgAdlXOKgt-97" value="&lt;font style=&quot;font-size: 16px;&quot;&gt;External&lt;/font&gt;&lt;div&gt;&lt;font style=&quot;font-size: 16px;&quot;&gt;Applications&lt;/font&gt;&lt;/div&gt;" style="rounded=0;whiteSpace=wrap;html=1;fillColor=#f5f5f5;fontColor=#333333;strokeColor=#666666;" vertex="1" parent="1">
          <mxGeometry x="180" y="490" width="120" height="60" as="geometry" />
        </mxCell>
      </root>
    </mxGraphModel>
  </diagram>
</mxfile>
